<?xml version="1.0" standalone="no"?>
<!DOCTYPE svg PUBLIC "-//W3C//DTD SVG 20010904//EN"
 "http://www.w3.org/TR/2001/REC-SVG-20010904/DTD/svg10.dtd">
<svg version="1.0" xmlns="http://www.w3.org/2000/svg"
 width="561.000000pt" height="561.000000pt" viewBox="0 0 561.000000 561.000000"
 preserveAspectRatio="xMidYMid meet">
<metadata>
Created by potrace 1.14, written by Peter Selinger 2001-2017
</metadata>
<g transform="translate(0.000000,561.000000) scale(0.100000,-0.100000)"
fill="#000000" stroke="none">
<path d="M2140 4599 c-664 -42 -1003 -317 -1105 -896 -29 -167 -37 -436 -32
-1026 5 -595 10 -680 52 -868 85 -384 320 -637 685 -738 225 -62 452 -75 1194
-68 314 3 609 10 656 16 356 45 582 150 753 350 94 109 155 233 200 407 52
198 58 284 64 884 5 580 -4 858 -33 1031 -65 377 -236 631 -519 770 -172 84
-335 121 -620 139 -183 11 -1108 11 -1295 -1z m855 -899 l-800 -800 800 -800
800 -800 -670 0 -670 0 -628 628 -627 627 0 340 0 340 628 631 627 631 670 1
670 2 -800 -800z"/>
</g>
</svg>
